<?plantuml 1.2026.2?><svg xmlns="http://www.w3.org/2000/svg" xmlns:xlink="http://www.w3.org/1999/xlink" contentStyleType="text/css" data-diagram-type="DESCRIPTION" height="424px" preserveAspectRatio="none" style="width:2348px;height:424px;background:#FFFFFF;" version="1.1" viewBox="0 0 2348 424" width="2348px" zoomAndPan="magnify"><title>Test architecture &#8212; ComfyUI-LM-Studio (unit under test = the node)</title><defs/><g><g class="title" data-source-line="2"><text fill="#000000" font-family="Inconsolata" font-size="22" font-weight="bold" lengthAdjust="spacing" textLength="847.9453" x="745.9004" y="35.4209">Test architecture &#8212; ComfyUI-LM-Studio (unit under test = the node)</text></g><!--cluster Repo: ComfyUI-LM-Studio--><g class="cluster" data-qualified-name="Repo. ComfyUI-LM-Studio" data-source-line="8" id="ent0002"><path d="M13.5,57.6094 L216.8164,57.6094 A3.75,3.75 0 0 1 219.3164,60.1094 L226.3164,79.9063 L858.5,79.9063 A2.5,2.5 0 0 1 861,82.4063 L861,407.1094 A2.5,2.5 0 0 1 858.5,409.6094 L13.5,409.6094 A2.5,2.5 0 0 1 11,407.1094 L11,60.1094 A2.5,2.5 0 0 1 13.5,57.6094" fill="#FFFFFF" style="stroke:#000000;stroke-width:1;"/><line style="stroke:#000000;stroke-width:1;" x1="11" x2="226.3164" y1="79.9063" y2="79.9063"/><text fill="#000000" font-family="Inconsolata" font-size="14" font-weight="bold" lengthAdjust="spacing" textLength="202.3164" x="15" y="72.6045">Repo: ComfyUI-LM-Studio</text></g><!--cluster User machine runtime--><g class="cluster" data-qualified-name="User machine runtime" data-source-line="19" id="ent0011"><path d="M1142.5,289.6094 L1318.3223,289.6094 A3.75,3.75 0 0 1 1320.8223,292.1094 L1327.8223,311.9063 L1742.5,311.9063 A2.5,2.5 0 0 1 1745,314.4063 L1745,407.1094 A2.5,2.5 0 0 1 1742.5,409.6094 L1142.5,409.6094 A2.5,2.5 0 0 1 1140,407.1094 L1140,292.1094 A2.5,2.5 0 0 1 1142.5,289.6094" fill="#FFFFFF" style="stroke:#000000;stroke-width:1;"/><line style="stroke:#000000;stroke-width:1;" x1="1140" x2="1327.8223" y1="311.9063" y2="311.9063"/><text fill="#000000" font-family="Inconsolata" font-size="14" font-weight="bold" lengthAdjust="spacing" textLength="174.8223" x="1144" y="304.6045">User machine runtime</text></g><!--cluster Not required at test time--><g class="cluster" data-qualified-name="Not required at test time" data-source-line="29" id="ent0017"><path d="M1387.5,59.1094 L1586.5576,59.1094 A3.75,3.75 0 0 1 1589.0576,61.6094 L1596.0576,81.4063 L1727.5,81.4063 A2.5,2.5 0 0 1 1730,83.9063 L1730,160.6094 A2.5,2.5 0 0 1 1727.5,163.1094 L1387.5,163.1094 A2.5,2.5 0 0 1 1385,160.6094 L1385,61.6094 A2.5,2.5 0 0 1 1387.5,59.1094" fill="#FFC0CB" style="stroke:#000000;stroke-width:1;"/><line style="stroke:#000000;stroke-width:1;" x1="1385" x2="1596.0576" y1="81.4063" y2="81.4063"/><text fill="#000000" font-family="Inconsolata" font-size="14" font-weight="bold" lengthAdjust="spacing" textLength="198.0576" x="1389" y="74.1045">Not required at test time</text></g><!--entity NODE--><g class="entity" data-qualified-name="Repo. ComfyUI-LM-Studio.NODE" data-source-line="9" id="ent0003"><rect fill="#FFFFFF" height="68.8906" rx="2.5" ry="2.5" style="stroke:#000000;stroke-width:1;" width="138.1387" x="704" y="324.6094"/><text fill="#000000" font-family="Inconsolata" font-size="14" font-style="italic" lengthAdjust="spacing" textLength="44.2559" x="750.9414" y="347.6045">&#171;unit&#187;</text><text fill="#000000" font-family="Inconsolata" font-size="14" lengthAdjust="spacing" textLength="56.5605" x="714" y="363.9014">node.py</text><text fill="#000000" font-family="Inconsolata" font-size="14" lengthAdjust="spacing" textLength="118.1387" x="714" y="380.1982">&#171;LMStudioNode&#187;</text></g><!--entity TESTS--><g class="entity" data-qualified-name="Repo. ComfyUI-LM-Studio.TESTS" data-source-line="10" id="ent0004"><rect fill="#FFFFFF" height="36.2969" rx="2.5" ry="2.5" style="stroke:#000000;stroke-width:1;" width="215.2891" x="629.5" y="218.1094"/><text fill="#000000" font-family="Inconsolata" font-size="14" lengthAdjust="spacing" textLength="195.2891" x="639.5" y="241.1045">tests/test_comfyui_mock.py</text></g><!--entity CONFTEST--><g class="entity" data-qualified-name="Repo. ComfyUI-LM-Studio.CONFTEST" data-source-line="11" id="ent0005"><rect fill="#FFFFFF" height="36.2969" rx="2.5" ry="2.5" style="stroke:#000000;stroke-width:1;" width="137.4688" x="27.5" y="102.6094"/><text fill="#000000" font-family="Inconsolata" font-size="14" lengthAdjust="spacing" textLength="117.4688" x="37.5" y="125.6045">tests/conftest.py</text></g><!--entity BOOTSTRAP--><g class="entity" data-qualified-name="Repo. ComfyUI-LM-Studio.BOOTSTRAP" data-source-line="12" id="ent0006"><rect fill="#FFFFFF" height="36.2969" rx="2.5" ry="2.5" style="stroke:#000000;stroke-width:1;" width="148.0303" x="446" y="218.1094"/><text fill="#000000" font-family="Inconsolata" font-size="14" lengthAdjust="spacing" textLength="128.0303" x="456" y="241.1045">tests/bootstrap.py</text></g><!--entity FACADE--><g class="entity" data-qualified-name="Repo. ComfyUI-LM-Studio.FACADE" data-source-line="13" id="ent0007"><rect fill="#FFFFFF" height="52.5938" rx="2.5" ry="2.5" style="stroke:#000000;stroke-width:1;" width="219.3564" x="625.5" y="94.1094"/><text fill="#000000" font-family="Inconsolata" font-size="14" lengthAdjust="spacing" textLength="199.3564" x="635.5" y="117.1045">lm-studio.wiremock.jbang.kt</text><text fill="#000000" font-family="Inconsolata" font-size="14" lengthAdjust="spacing" textLength="102.5938" x="635.5" y="133.4014">(Kotlin + Clikt)</text></g><!--entity LOCALSPEC--><g class="entity" data-qualified-name="Repo. ComfyUI-LM-Studio.LOCALSPEC" data-source-line="14" id="ent0008"><rect fill="#FFFFFF" height="55.5938" rx="2.5" ry="2.5" style="stroke:#000000;stroke-width:1;" width="193.9053" x="423" y="331.1094"/><polygon fill="#FFFFFF" points="599.9053,336.1094,599.9053,350.1094,611.9053,350.1094,611.9053,342.1094,605.9053,336.1094,599.9053,336.1094" style="stroke:#000000;stroke-width:1;"/><line style="stroke:#000000;stroke-width:1;" x1="605.9053" x2="605.9053" y1="336.1094" y2="342.1094"/><line style="stroke:#000000;stroke-width:1;" x1="611.9053" x2="605.9053" y1="342.1094" y2="342.1094"/><text fill="#000000" font-family="Inconsolata" font-size="14" lengthAdjust="spacing" textLength="163.9053" x="433" y="357.1045">tests/lms-openapi.yaml</text><text fill="#000000" font-family="Inconsolata" font-size="14" lengthAdjust="spacing" textLength="102.5527" x="433" y="373.4014">(local fallback)</text></g><!--entity PINS--><g class="entity" data-qualified-name="Repo. ComfyUI-LM-Studio.PINS" data-source-line="15" id="ent0009"><rect fill="#FFFFFF" height="55.5938" rx="2.5" ry="2.5" style="stroke:#000000;stroke-width:1;" width="208.8145" x="381.5" y="92.6094"/><polygon fill="#FFFFFF" points="573.3145,97.6094,573.3145,111.6094,585.3145,111.6094,585.3145,103.6094,579.3145,97.6094,573.3145,97.6094" style="stroke:#000000;stroke-width:1;"/><line style="stroke:#000000;stroke-width:1;" x1="579.3145" x2="579.3145" y1="97.6094" y2="103.6094"/><line style="stroke:#000000;stroke-width:1;" x1="585.3145" x2="579.3145" y1="103.6094" y2="103.6094"/><text fill="#000000" font-family="Inconsolata" font-size="14" lengthAdjust="spacing" textLength="73.2813" x="391.5" y="118.6045">.sdkmanrc</text><text fill="#000000" font-family="Inconsolata" font-size="14" lengthAdjust="spacing" textLength="178.8145" x="391.5" y="134.9014">(java / kotlin / jbang pins)</text></g><!--entity LAUNCHER--><g class="entity" data-qualified-name="Repo. ComfyUI-LM-Studio.LAUNCHER" data-source-line="16" id="ent0010"><rect fill="#FFFFFF" height="52.5938" rx="2.5" ry="2.5" style="stroke:#000000;stroke-width:1;" width="146.5059" x="199.5" y="94.1094"/><text fill="#000000" font-family="Inconsolata" font-size="14" lengthAdjust="spacing" textLength="126.5059" x="209.5" y="117.1045">run-tests.sh / .ps1</text><text fill="#000000" font-family="Inconsolata" font-size="14" lengthAdjust="spacing" textLength="116.7031" x="209.5" y="133.4014">(venv discovery)</text></g><!--entity VENV--><g class="entity" data-qualified-name="User machine runtime.VENV" data-source-line="20" id="ent0012"><rect fill="#FFFFFF" height="52.5938" rx="2.5" ry="2.5" style="stroke:#000000;stroke-width:1;" width="118.0752" x="1273" y="332.6094"/><text fill="#000000" font-family="Inconsolata" font-size="14" lengthAdjust="spacing" textLength="98.0752" x="1283" y="355.6045">ComfyUI venv</text><text fill="#000000" font-family="Inconsolata" font-size="14" lengthAdjust="spacing" textLength="59.4521" x="1283" y="371.9014">(Python)</text></g><!--entity SDKMAN--><g class="entity" data-qualified-name="User machine runtime.SDKMAN" data-source-line="21" id="ent0013"><rect fill="#FFFFFF" height="36.2969" rx="2.5" ry="2.5" style="stroke:#000000;stroke-width:1;" width="80.9766" x="1156.5" y="341.1094"/><text fill="#000000" font-family="Inconsolata" font-size="14" lengthAdjust="spacing" textLength="60.9766" x="1166.5" y="364.1045">SDKMAN</text></g><!--entity JBANG--><g class="entity" data-qualified-name="User machine runtime.JBANG" data-source-line="22" id="ent0014"><rect fill="#FFFFFF" height="36.2969" rx="2.5" ry="2.5" style="stroke:#000000;stroke-width:1;" width="126.1006" x="1426" y="341.1094"/><text fill="#000000" font-family="Inconsolata" font-size="14" lengthAdjust="spacing" textLength="106.1006" x="1436" y="364.1045">jbang + JDK 25</text></g><!--entity WM--><g class="entity" data-qualified-name="User machine runtime.WM" data-source-line="23" id="ent0015"><rect fill="#FFFFFF" height="68.8906" rx="2.5" ry="2.5" style="stroke:#000000;stroke-width:1;" width="142.4043" x="1587" y="324.6094"/><text fill="#000000" font-family="Inconsolata" font-size="14" lengthAdjust="spacing" textLength="108.623" x="1597" y="347.6045">WireMock 3.9.1</text><text fill="#000000" font-family="Inconsolata" font-size="14" lengthAdjust="spacing" textLength="122.4043" x="1597" y="363.9014">(embedded Jetty)</text><text fill="#000000" font-family="Inconsolata" font-size="14" lengthAdjust="spacing" textLength="107.1396" x="1597" y="380.1982">127.0.0.1:8089</text></g><!--entity COMFYUI--><g class="entity" data-qualified-name="Not required at test time.COMFYUI" data-source-line="30" id="ent0018"><rect fill="#FFFFFF" height="52.5938" rx="2.5" ry="2.5" style="stroke:#000000;stroke-width:1;" width="139.1504" x="1574.5" y="94.1094"/><text fill="#000000" font-family="Inconsolata" font-size="14" font-style="italic" lengthAdjust="spacing" textLength="64.8662" x="1611.6421" y="117.1045">&#171;absent&#187;</text><text fill="#000000" font-family="Inconsolata" font-size="14" lengthAdjust="spacing" textLength="119.1504" x="1584.5" y="133.4014">ComfyUI runtime</text></g><!--entity LMS--><g class="entity" data-qualified-name="Not required at test time.LMS" data-source-line="31" id="ent0019"><rect fill="#FFFFFF" height="52.5938" rx="2.5" ry="2.5" style="stroke:#000000;stroke-width:1;" width="137.6875" x="1401" y="94.1094"/><text fill="#000000" font-family="Inconsolata" font-size="14" font-style="italic" lengthAdjust="spacing" textLength="64.8662" x="1437.4106" y="117.1045">&#171;absent&#187;</text><text fill="#000000" font-family="Inconsolata" font-size="14" lengthAdjust="spacing" textLength="117.6875" x="1411" y="133.4014">LM Studio server</text></g><!--entity ONLINESPEC--><g class="entity" data-qualified-name="ONLINESPEC" data-source-line="26" id="ent0016"><path d="M886.0987,344.3582 C891.5575,335.8252 898.5844,336.76 903.0206,345.3677 C906.6712,338.4907 913.3527,337.6812 918.2232,343.9578 C922.2807,335.9082 929.88,335.7709 935.2624,342.422 C940.2463,333.431 946.5151,334.1107 951.6429,342.2846 C956.6848,334.4728 961.2491,333.9983 966.759,341.8325 C971.7756,334.7221 978.8453,333.5344 983.8622,341.8323 C988.3622,334.9288 995.4277,335.12 999.3483,342.4621 C1003.8844,334.2824 1012.083,331.9736 1018.0138,340.9441 C1022.9483,334.5673 1029.9258,334.1569 1033.5192,342.3695 C1037.7118,335.0893 1043.9547,335.8622 1048.5912,341.8659 C1054.8031,334.6206 1060.7426,333.9209 1066.0013,342.8894 C1070.6675,336.5738 1077.2494,334.8877 1081.5135,343.3125 C1087.991,334.3228 1096.4516,336.2735 1100.0465,346.145 C1104.6449,338.1584 1111.1705,339.309 1115.498,346.4222 C1123.994,347.2078 1126.1474,351.9673 1123.1351,359.4825 C1127.3111,366.832 1125.6514,375.0494 1115.2195,374.8979 C1112.1051,384.1389 1104.7144,386.0816 1097.9432,378.6982 C1094.0188,385.7124 1089.2956,385.8297 1083.6207,380.7758 C1079.5795,390.2493 1071.2846,389.9631 1066.6043,381.378 C1061.5907,390.1249 1054.2469,389.4788 1048.6308,382.0474 C1044.4361,389.3418 1038.3135,390.0999 1032.3546,384.2284 C1027.7874,392.4914 1022.5929,391.2145 1017.2611,385.027 C1013.7332,393.811 1006.5306,394.8571 1001.3461,386.5717 C995.4951,395.2539 990.3318,394.5765 984.8524,386.2121 C978.6275,392.5182 972.5897,393.227 968.1657,384.2463 C961.5318,392.6821 955.6929,390.7139 950.5875,382.6208 C945.0581,390.8153 938.2399,388.775 934.1389,381.1369 C929.2584,389.3598 922.2549,388.293 918.2709,380.2618 C912.7572,387.5717 904.5424,387.2225 901.553,377.7476 C896.1387,383.555 888.6505,383.1012 886.291,374.5097 C879.0239,372.9916 875.8899,369.465 880.0182,362.1592 C873.7055,354.0886 875.3187,346.5903 886.0987,344.3582" fill="#FFFFFF" style="stroke:#000000;stroke-width:1;"/><text fill="#000000" font-family="Inconsolata" font-size="14" lengthAdjust="spacing" textLength="214.457" x="892" y="364.1045">lmstudio.ai/docs/openapi.yaml</text></g><g class="entity" data-qualified-name="GMN33" data-source-line="49" id="ent0034"><path d="M1764.5,323.6094 L1764.5,394.1406 L2045.7031,394.1406 L2045.7031,333.6094 L2035.7031,323.6094 L1764.5,323.6094" fill="#FFFFFF" style="stroke:#000000;stroke-width:1;"/><path d="M2035.7031,323.6094 L2035.7031,333.6094 L2045.7031,333.6094 L2035.7031,323.6094" fill="#FFFFFF" style="stroke:#000000;stroke-width:1;"/><text fill="#000000" font-family="Inconsolata" font-size="13" lengthAdjust="spacing" textLength="232.356" x="1770.5" y="340.6763">Imported as a plain Python module.</text><text fill="#000000" font-family="Inconsolata" font-size="13" font-weight="bold" lengthAdjust="spacing" textLength="207.2002" x="1770.5" y="355.8091">No ComfyUI runtime needed</text><text fill="#000000" font-family="Inconsolata" font-size="13" lengthAdjust="spacing" textLength="48.8706" x="1981.8325" y="355.8091">&#8212; tests</text><text fill="#000000" font-family="Inconsolata" font-size="13" lengthAdjust="spacing" textLength="227.8301" x="1770.5" y="370.9419">exercise the INPUT_TYPES contract</text><text fill="#000000" font-family="Inconsolata" font-size="13" lengthAdjust="spacing" textLength="190.144" x="1770.5" y="386.0747">directly via get_response(...).</text></g><g class="entity" data-qualified-name="GMN36" data-source-line="56" id="ent0037"><path d="M2080.5,323.6094 L2080.5,394.1406 L2341.7461,394.1406 L2341.7461,333.6094 L2331.7461,323.6094 L2080.5,323.6094" fill="#FFFFFF" style="stroke:#000000;stroke-width:1;"/><path d="M2331.7461,323.6094 L2331.7461,333.6094 L2341.7461,333.6094 L2331.7461,323.6094" fill="#FFFFFF" style="stroke:#000000;stroke-width:1;"/><text fill="#000000" font-family="Inconsolata" font-size="13" lengthAdjust="spacing" textLength="154.832" x="2086.5" y="340.6763">Stands in for LM Studio.</text><text fill="#000000" font-family="Inconsolata" font-size="13" font-weight="bold" lengthAdjust="spacing" textLength="206.3242" x="2086.5" y="355.8091">No LM Studio install needed</text><text fill="#000000" font-family="Inconsolata" font-size="13" lengthAdjust="spacing" textLength="13" x="2296.9565" y="355.8091">&#8212;</text><text fill="#000000" font-family="Inconsolata" font-size="13" lengthAdjust="spacing" textLength="240.2461" x="2086.5" y="370.9419">stubs are seeded from the LM Studio</text><text fill="#000000" font-family="Inconsolata" font-size="13" lengthAdjust="spacing" textLength="129.1431" x="2086.5" y="386.0747">OpenAPI document.</text></g><g class="entity" data-qualified-name="GMN39" data-source-line="63" id="ent0040"><path d="M1520,208.6094 L1520,264.0078 A0,0 0 0 0 1520,264.0078 L1767.8716,264.0078 A0,0 0 0 0 1767.8716,264.0078 L1767.8716,218.6094 L1757.8716,208.6094 L1648,208.6094 L1644,147.3994 L1640,208.6094 L1520,208.6094 A0,0 0 0 0 1520,208.6094" fill="#FFFFFF" style="stroke:#000000;stroke-width:1;"/><path d="M1757.8716,208.6094 L1757.8716,218.6094 L1767.8716,218.6094 L1757.8716,208.6094" fill="#FFFFFF" style="stroke:#000000;stroke-width:1;"/><text fill="#000000" font-family="Inconsolata" font-size="13" lengthAdjust="spacing" textLength="226.8716" x="1526" y="225.6763">Only the node module is imported;</text><text fill="#000000" font-family="Inconsolata" font-size="13" lengthAdjust="spacing" textLength="217.9023" x="1526" y="240.8091">ComfyUI's graph / executor is not</text><text fill="#000000" font-family="Inconsolata" font-size="13" lengthAdjust="spacing" textLength="203.3027" x="1526" y="255.9419">required for this unit test suite.</text></g><!--link LAUNCHER to VENV--><g class="link" data-entity-1="ent0010" data-entity-2="ent0012" data-link-type="dependency" data-source-line="34" id="lnk20"><path d="M297.5,147.1394 C297.5,158.2394 297.5,168.6094 297.5,168.6094 C297.5,168.6094 1332,168.6094 1332,168.6094 C1332,168.6094 1332,273.7094 1332,326.2194" fill="none" id="LAUNCHER-to-VENV" style="stroke:#000000;stroke-width:1;stroke-dasharray:7,7;"/><polygon fill="#000000" points="1332,332.2194,1336,323.2194,1332,327.2194,1328,323.2194,1332,332.2194" style="stroke:#000000;stroke-width:1;"/><text fill="#000000" font-family="Inconsolata" font-size="13" lengthAdjust="spacing" textLength="95.6592" x="922.9858" y="149.6763">find &amp; activate</text><text fill="#000000" font-family="Inconsolata" font-size="13" lengthAdjust="spacing" textLength="167.9907" x="886.82" y="164.8091">(./venv, ../venv, ../../venv)</text></g><!--link LAUNCHER to TESTS--><g class="link" data-entity-1="ent0010" data-entity-2="ent0004" data-link-type="dependency" data-source-line="35" id="lnk21"><path d="M248.5,147.1294 C248.5,187.9794 248.5,261.6094 248.5,261.6094 C248.5,261.6094 666.75,261.6094 666.75,261.6094 C666.75,261.6094 666.75,264.4594 666.75,260.3694" fill="none" id="LAUNCHER-to-TESTS" style="stroke:#000000;stroke-width:1;stroke-dasharray:7,7;"/><polygon fill="#000000" points="666.75,254.3694,662.75,263.3694,666.75,259.3694,670.75,263.3694,666.75,254.3694" style="stroke:#000000;stroke-width:1;"/><text fill="#000000" font-family="Inconsolata" font-size="13" lengthAdjust="spacing" textLength="112.0044" x="291.01" y="257.6763">python -m pytest</text></g><!--link TESTS to NODE--><g class="link" data-entity-1="ent0004" data-entity-2="ent0003" data-link-type="dependency" data-source-line="36" id="lnk22"><path d="M773,254.2594 C773,272.6994 773,295.7294 773,318.5694" fill="none" id="TESTS-to-NODE" style="stroke:#000000;stroke-width:1;stroke-dasharray:7,7;"/><polygon fill="#000000" points="773,324.5694,777,315.5694,773,319.5694,769,315.5694,773,324.5694" style="stroke:#000000;stroke-width:1;"/><text fill="#000000" font-family="Inconsolata" font-size="13" lengthAdjust="spacing" textLength="92.2505" x="859.1506" y="302.4863">get_response(</text><text fill="#000000" font-family="Inconsolata" font-size="13" lengthAdjust="spacing" textLength="100.915" x="858.9507" y="317.6191">use_sdk=False,</text><text fill="#000000" font-family="Inconsolata" font-size="13" lengthAdjust="spacing" textLength="254.2871" x="782.2646" y="332.7519">server_address=http://127.0.0.1:8089)</text></g><!--link TESTS to WM--><g class="link" data-entity-1="ent0004" data-entity-2="ent0015" data-link-type="dependency" data-source-line="37" id="lnk23"><path d="M844.66,236.6094 C963.66,236.6094 1138.75,236.6094 1138.75,236.6094 C1138.75,236.6094 1138.75,326.6094 1138.75,326.6094 C1138.75,326.6094 1438.68,326.6094 1580.89,326.6094" fill="none" id="TESTS-to-WM" style="stroke:#000000;stroke-width:1;stroke-dasharray:7,7;"/><polygon fill="#000000" points="1586.89,326.6094,1577.89,322.6094,1581.89,326.6094,1577.89,330.6094,1586.89,326.6094" style="stroke:#000000;stroke-width:1;"/><text fill="#000000" font-family="Inconsolata" font-size="13" lengthAdjust="spacing" textLength="164.8994" x="1005.78" y="307.6763">POST /__admin/mappings</text><text fill="#000000" font-family="Inconsolata" font-size="13" lengthAdjust="spacing" textLength="134.1006" x="1021.1794" y="322.8091">POST /__admin/reset</text></g><!--link CONFTEST to BOOTSTRAP--><g class="link" data-entity-1="ent0005" data-entity-2="ent0006" data-link-type="dependency" data-source-line="38" id="lnk24"><path d="M96,138.7294 C96,171.3594 96,236.6094 96,236.6094 C96,236.6094 318.06,236.6094 439.66,236.6094" fill="none" id="CONFTEST-to-BOOTSTRAP" style="stroke:#000000;stroke-width:1;stroke-dasharray:7,7;"/><polygon fill="#000000" points="445.66,236.6094,436.66,232.6094,440.66,236.6094,436.66,240.6094,445.66,236.6094" style="stroke:#000000;stroke-width:1;"/><text fill="#000000" font-family="Inconsolata" font-size="13" lengthAdjust="spacing" textLength="97.5571" x="122.099" y="217.6763">ensure_jbang()</text><text fill="#000000" font-family="Inconsolata" font-size="13" lengthAdjust="spacing" textLength="101.9751" x="119.89" y="232.8091">fetch_openapi()</text></g><!--link BOOTSTRAP to SDKMAN--><g class="link" data-entity-1="ent0006" data-entity-2="ent0013" data-link-type="dependency" data-source-line="39" id="lnk25"><path d="M564.4,254.4194 C564.4,255.7594 564.4,256.6094 564.4,256.6094 C564.4,256.6094 1183.5,256.6094 1183.5,256.6094 C1183.5,256.6094 1183.5,305.2994 1183.5,334.7894" fill="none" id="BOOTSTRAP-to-SDKMAN" style="stroke:#000000;stroke-width:1;stroke-dasharray:7,7;"/><polygon fill="#000000" points="1183.5,340.7894,1187.5,331.7894,1183.5,335.7894,1179.5,331.7894,1183.5,340.7894" style="stroke:#000000;stroke-width:1;"/><text fill="#000000" font-family="Inconsolata" font-size="13" lengthAdjust="spacing" textLength="122.7637" x="915.94" y="237.6763">install from GitHub</text><text fill="#000000" font-family="Inconsolata" font-size="13" lengthAdjust="spacing" textLength="70.5098" x="942.067" y="252.8091">release zip</text></g><!--link BOOTSTRAP to JBANG--><g class="link" data-entity-1="ent0006" data-entity-2="ent0014" data-link-type="dependency" data-source-line="40" id="lnk26"><path d="M505.2,254.2994 C505.2,271.1494 505.2,293.6094 505.2,293.6094 C505.2,293.6094 1473,293.6094 1473,293.6094 C1473,293.6094 1473,315.4794 1473,334.8594" fill="none" id="BOOTSTRAP-to-JBANG" style="stroke:#000000;stroke-width:1;stroke-dasharray:7,7;"/><polygon fill="#000000" points="1473,340.8594,1477,331.8594,1473,335.8594,1469,331.8594,1473,340.8594" style="stroke:#000000;stroke-width:1;"/><text fill="#000000" font-family="Inconsolata" font-size="13" lengthAdjust="spacing" textLength="89.9019" x="994.07" y="289.6763">spawn facade</text></g><!--link BOOTSTRAP to ONLINESPEC--><g class="link" data-entity-1="ent0006" data-entity-2="ent0016" data-link-type="dependency" data-source-line="41" id="lnk27"><path d="M534.8,254.1594 C534.8,257.3194 534.8,259.6094 534.8,259.6094 C534.8,259.6094 999,259.6094 999,259.6094 C999,259.6094 999,300.6394 999,330.0294" fill="none" id="BOOTSTRAP-to-ONLINESPEC" style="stroke:#000000;stroke-width:1;stroke-dasharray:7,7;"/><polygon fill="#000000" points="999,336.0294,1003,327.0294,999,331.0294,995,327.0294,999,336.0294" style="stroke:#000000;stroke-width:1;"/><text fill="#000000" font-family="Inconsolata" font-size="13" lengthAdjust="spacing" textLength="71.9824" x="730.39" y="272.6763">GET (retry)</text></g><!--link BOOTSTRAP to LOCALSPEC--><g class="link" data-entity-1="ent0006" data-entity-2="ent0008" data-link-type="dependency" data-source-line="42" id="lnk28"><path d="M475.6,254.2594 C475.6,274.4394 475.6,301.2894 475.6,324.8494" fill="none" id="BOOTSTRAP-to-LOCALSPEC" style="stroke:#000000;stroke-width:1;stroke-dasharray:7,7;"/><polygon fill="#000000" points="475.6,330.8494,479.6,321.8494,475.6,325.8494,471.6,321.8494,475.6,330.8494" style="stroke:#000000;stroke-width:1;"/><text fill="#000000" font-family="Inconsolata" font-size="13" lengthAdjust="spacing" textLength="107.6816" x="367.6" y="288.6163">fallback if offline</text></g><!--link PINS to SDKMAN--><g class="link" data-entity-1="ent0009" data-entity-2="ent0013" data-link-type="dependency" data-source-line="43" id="lnk29"><path d="M518.25,148.6594 C518.25,167.3894 518.25,188.6094 518.25,188.6094 C518.25,188.6094 1210.5,188.6094 1210.5,188.6094 C1210.5,188.6094 1210.5,290.8794 1210.5,334.8594" fill="none" id="PINS-to-SDKMAN" style="stroke:#000000;stroke-width:1;"/><polygon fill="#000000" points="1210.5,340.8594,1214.5,331.8594,1210.5,335.8594,1206.5,331.8594,1210.5,340.8594" style="stroke:#000000;stroke-width:1;"/><text fill="#000000" font-family="Inconsolata" font-size="13" lengthAdjust="spacing" textLength="54.3867" x="865.53" y="184.6763">versions</text></g><!--link JBANG to FACADE--><g class="link" data-entity-1="ent0014" data-entity-2="ent0007" data-link-type="dependency" data-source-line="44" id="lnk30"><path d="M1425.94,359.6094 C1409.35,359.6094 1396,359.6094 1396,359.6094 C1396,359.6094 1396,129.6094 1396,129.6094 C1396,129.6094 1038.37,129.6094 850.52,129.6094" fill="none" id="JBANG-to-FACADE" style="stroke:#000000;stroke-width:1;stroke-dasharray:7,7;"/><polygon fill="#000000" points="844.52,129.6094,853.52,133.6094,849.52,129.6094,853.52,125.6094,844.52,129.6094" style="stroke:#000000;stroke-width:1;"/><text fill="#000000" font-family="Inconsolata" font-size="13" lengthAdjust="spacing" textLength="121.5068" x="1128.23" y="125.6763">run as jbang script</text></g><!--link FACADE to WM--><g class="link" data-entity-1="ent0007" data-entity-2="ent0015" data-link-type="dependency" data-source-line="45" id="lnk31"><path d="M844.57,112.6094 C854.41,112.6094 860.75,112.6094 860.75,112.6094 C860.75,112.6094 860.75,328.6094 860.75,328.6094 C860.75,328.6094 1385.5,328.6094 1580.9,328.6094" fill="none" id="FACADE-to-WM" style="stroke:#000000;stroke-width:1;stroke-dasharray:7,7;"/><polygon fill="#000000" points="1586.9,328.6094,1577.9,324.6094,1581.9,328.6094,1577.9,332.6094,1586.9,328.6094" style="stroke:#000000;stroke-width:1;"/><text fill="#000000" font-family="Inconsolata" font-size="13" lengthAdjust="spacing" textLength="83.1479" x="1097.9622" y="341.6763">embed Jetty,</text><text fill="#000000" font-family="Inconsolata" font-size="13" lengthAdjust="spacing" textLength="125.1123" x="1076.98" y="356.8091">seed from OpenAPI</text></g><!--link NODE to WM--><g class="link" data-entity-1="ent0003" data-entity-2="ent0015" data-link-type="dependency" data-source-line="46" id="lnk32"><path d="M842.08,330.6094 C1006.63,330.6094 1414.44,330.6094 1580.96,330.6094" fill="none" id="NODE-to-WM" style="stroke:#000000;stroke-width:1;stroke-dasharray:7,7;"/><polygon fill="#000000" points="1586.96,330.6094,1577.96,326.6094,1581.96,330.6094,1577.96,334.6094,1586.96,330.6094" style="stroke:#000000;stroke-width:1;"/><text fill="#000000" font-family="Inconsolata" font-size="13" lengthAdjust="spacing" textLength="199.4624" x="1215.52" y="326.6763">POST /api/v0/chat/completions</text></g><!--link NODE to GMN33--><g class="link" data-entity-1="ent0003" data-entity-2="ent0034" data-link-type="association" data-source-line="49" id="lnk35"><path d="M773,393.6294 C773,400.9994 773,406.6094 773,406.6094 C773,406.6094 1905,406.6094 1905,406.6094 C1905,406.6094 1905,401.4994 1905,394.6194" fill="none" id="NODE-GMN33" style="stroke:#000000;stroke-width:1;stroke-dasharray:7,7;"/></g><!--link WM to GMN36--><g class="link" data-entity-1="ent0015" data-entity-2="ent0037" data-link-type="association" data-source-line="56" id="lnk38"><path d="M1658,393.8194 C1658,406.4094 1658,417.6094 1658,417.6094 C1658,417.6094 2211,417.6094 2211,417.6094 C2211,417.6094 2211,406.9994 2211,394.8194" fill="none" id="WM-GMN36" style="stroke:#000000;stroke-width:1;stroke-dasharray:7,7;"/></g><?plantuml-src TLP_Rzf84FtVds8k9rqXBNRIq-dQ78r42Kb9Wa61DAeK2Its6BROkwvtJCkTJheFSP_mFidDhWq1qYPIv9Wti_FZlRVyH0lC4F9KIEMHf1HXWeP05D524aPK5WZ__VClT7MMhE_xhTj1QqnbB3KqIYK9IXLZ0MHZtW4d0wLZR7gUMKgLYq9a4EairmeLZMdDwGjEAjGynHr8Z8aeKxhKYaB1vVHLf9NHgI2nWqgbGbhd2BgWXVQyN4HBCKSukiDSdpsly0Z-yk3fU3YofVdv-b6rsxU32XFog_Fp8n06mk553zfjszNv-NwWRSy4zkyqigUKSfhfQCcvNEIaDvwClnV1NIJsQGFi3iDB2_uUTgOr6If4lW6_7muduybTPxIFJhEMSQNxNsM1hepFCnwelwH7rRZHn6E2bz1DvPAQBj5bfzkvw74MKP1CH4ImEJFDJ4ldg4Gk_RN8KawGwaYaa8WqdV5uEO7DS3liTcx7ervtFublucKcL15nt6Un4X30iZe_05SJv58PcyCc6VN3Wo4LfMgvGdopu10_DwUSQOLg1R4qaLvXiNRHLH6T-x3xeNVd_Rsp-dl3xCi4arKnjKf5CiDdUw-P0JOp7p1QCtrKdTYb_jWBF-w7Z2zk1frm0pdyuP0Ai1zKzVmIhYzkuFLlHy-3hjztmglzc0TUue2N2B_wRttRFcOpZ6ECuHg9rir7TVhwT_-4Vq_FtfoyUUis-Z2mGuXINSQM43KVX0nY7PbWTwCEFWnl-s7FxSzx0QrMYqLAa1TeR0cyBbf8io_vHYQMQ9oWnOnX4G9-orCPIMhQ34yR23bLWLzAxYC6GPKLL6luUIJLyaVBs2uBAcKCBZ_nstRR7VTCWRS3g6s75ywyg7av6BlHxaJnN3P4uGzy_zmjjrx16IHInV0BC7_bIX3olFt0qk8LGvyUwkVcOIedz4sgtD48MfbzugQzdKyjsFd91Zn7clAykHs3ZKS5K1gSidpUNOhKu2lxfcfiAkAOWURTWYW_2uBzxJSF3taORFbr1gFXU0B1b5DaKWMPo5b-S_Eezj_RjPEtiQ8wpzPiR1vKXZamTNHkC0CJf6WnhMdLQ7exO1jRIQ6kWGLFR1wG53g3AqaVojcZAZ15OH3-bFbXi9F4fW6JYw-ApISICHu2dqZCmAlU11e54ll38MxhLMxTjO-1J40dYRr1FEj3zSXQhOFgUG56yewydR9iqif2Qn0prvAlKhk92fcJjmDujXQdw4hEl6Y3_8-Rpf07sXdrlHsY_62bFFPWTH942q615KMAvAhqMCTiUtA-86xFCOvbqsVL56JLoAAkhdQeF0yo7PSf-WmwFWur76WH5DU6yV6nk_6TCpCIls4HITwUDOD-EBgVJ2UVHhqnorFnVHKHOs9fh_Lq3Iifzhdk-txJzv1LPsizh9YD35ZOGiN6-b2Y2zWgVLlba_OtvDgjar7iVpFhNmZ6VL2DrvQx3MLKFMvWZompDejdLSqq4STnMRKRsI35JMs-rjJZ0pPBMS_u3yRKKtnXOCxNjxt9U6HHITmC8parOxOEQLjqTkk-FJcpD2NRxbCr_mC0?></g></svg>